<?xml version="1.0" standalone="no"?>
<!DOCTYPE svg PUBLIC "-//W3C//DTD SVG 20010904//EN"
 "http://www.w3.org/TR/2001/REC-SVG-20010904/DTD/svg10.dtd">
<svg version="1.0" xmlns="http://www.w3.org/2000/svg"
 width="1707.000000pt" height="1707.000000pt" viewBox="0 0 1707.000000 1707.000000"
 preserveAspectRatio="xMidYMid meet">
<metadata>
Created by potrace 1.11, written by Peter Selinger 2001-2013
</metadata>
<g transform="translate(0.000000,1707.000000) scale(0.100000,-0.100000)"
fill="#000000" stroke="none">
<path d="M10130 16780 c-150 -43 -331 -265 -334 -409 -3 -142 153 -293 380
-370 116 -39 251 -45 351 -16 81 23 142 87 173 180 75 226 -83 485 -358 585
-88 32 -167 43 -212 30z"/>
<path d="M4637 16284 c-218 -41 -419 -226 -473 -435 -16 -61 -21 -203 -10
-259 3 -14 8 -38 12 -54 25 -116 121 -270 246 -396 81 -82 111 -109 207 -188
101 -84 366 -306 371 -311 3 -3 46 -42 95 -86 155 -137 415 -395 511 -505 21
-25 41 -47 45 -50 22 -20 177 -221 224 -290 127 -186 424 -610 435 -620 3 -3
32 -41 65 -84 81 -107 84 -110 90 -105 4 5 -93 267 -268 719 -137 357 -364
943 -442 1140 -42 107 -90 231 -106 275 -16 44 -34 89 -39 100 -5 11 -63 157
-129 325 -155 396 -185 467 -224 528 -52 82 -123 157 -196 205 -133 90 -265
118 -414 91z"/>
<path d="M8027 15494 c-2 -2 -12 -5 -23 -7 -32 -6 -88 -34 -115 -59 -28 -24
-62 -86 -72 -128 -20 -84 -26 -266 -13 -445 7 -101 9 -124 26 -225 5 -30 12
-71 15 -90 3 -19 8 -48 12 -65 3 -16 7 -40 9 -52 1 -12 5 -34 8 -50 4 -15 8
-37 10 -48 2 -11 16 -76 31 -145 14 -69 28 -136 31 -150 2 -14 8 -43 14 -65 5
-22 18 -83 29 -135 11 -52 36 -169 55 -260 20 -91 38 -183 42 -204 3 -21 8
-48 10 -60 42 -199 68 -435 68 -606 0 -182 -16 -275 -61 -356 -43 -76 -128
-132 -226 -149 -15 -3 -39 -7 -54 -10 -34 -6 -186 -7 -228 -1 -169 25 -378
117 -620 274 -65 43 -224 158 -235 172 -14 16 -103 83 -94 70 17 -24 89 -115
95 -120 24 -21 166 -254 205 -335 26 -55 50 -107 55 -116 12 -26 48 -170 57
-229 10 -71 7 -168 -9 -233 -37 -158 -146 -305 -256 -346 -62 -23 -196 -19
-283 8 -173 53 -416 198 -655 390 -60 48 -300 254 -315 271 -5 5 -175 160
-264 241 -27 24 -58 53 -70 64 -37 35 -56 48 -56 38 0 -5 8 -18 18 -29 9 -10
37 -44 62 -74 25 -30 47 -57 50 -60 5 -5 79 -94 229 -275 120 -145 325 -421
420 -563 44 -68 81 -125 81 -127 0 -2 14 -28 31 -57 42 -71 131 -249 162 -323
76 -184 105 -367 82 -525 -22 -159 -138 -240 -339 -240 -76 0 -196 15 -281 34
-125 28 -417 110 -640 181 -189 59 -375 117 -390 121 -5 1 -35 10 -65 18 -112
32 -268 67 -355 79 -226 33 -349 -7 -394 -128 -64 -170 54 -339 334 -478 174
-86 292 -130 695 -257 235 -74 589 -191 610 -201 8 -4 53 -22 100 -40 110 -42
259 -119 336 -174 170 -121 249 -290 190 -404 -45 -85 -165 -166 -336 -226
-68 -24 -274 -78 -342 -90 -60 -11 -84 -15 -108 -20 -14 -3 -50 -9 -80 -15
-30 -6 -64 -12 -75 -14 -11 -2 -47 -7 -80 -11 -32 -3 -62 -8 -65 -10 -3 -1
-32 -6 -65 -10 -32 -3 -62 -8 -65 -10 -3 -2 -34 -6 -70 -9 -36 -3 -76 -8 -90
-10 -33 -6 -77 -12 -180 -26 -47 -6 -96 -13 -110 -15 -14 -3 -50 -7 -80 -10
-30 -3 -66 -7 -80 -10 -14 -2 -45 -7 -70 -10 -72 -9 -170 -23 -210 -30 -14 -2
-49 -7 -79 -10 -30 -4 -63 -9 -75 -11 -12 -2 -50 -9 -86 -15 -113 -18 -123
-19 -230 -40 -138 -27 -130 -25 -216 -49 -219 -60 -371 -151 -402 -240 -14
-39 -8 -120 11 -156 32 -62 106 -109 228 -145 66 -20 99 -22 314 -24 132 -1
278 2 325 6 47 4 121 10 165 14 44 3 91 8 105 10 14 1 50 6 80 9 58 6 198 24
240 31 22 3 113 16 230 31 38 5 77 11 125 18 17 3 86 12 155 21 69 9 136 18
150 20 14 2 68 9 120 15 52 6 109 13 125 15 17 2 64 7 105 10 41 4 86 8 100
11 35 5 282 18 355 18 77 -1 265 -13 273 -18 4 -2 25 -7 47 -10 145 -23 233
-76 293 -176 46 -78 33 -236 -31 -362 -124 -246 -453 -576 -897 -901 -182
-134 -173 -127 -305 -217 -182 -123 -254 -174 -251 -177 1 -2 41 18 87 43 155
84 452 230 614 301 147 65 388 163 401 163 3 0 20 6 37 14 72 32 351 116 467
141 121 26 166 30 345 29 147 -1 178 -4 232 -22 88 -31 150 -75 188 -135 19
-29 44 -121 40 -147 -1 -8 -5 -38 -9 -67 -21 -176 -153 -408 -528 -925 -37
-51 -102 -140 -144 -198 -147 -201 -270 -375 -313 -445 -24 -38 -52 -81 -61
-95 -24 -36 -105 -206 -125 -265 -24 -68 -25 -199 -2 -243 37 -70 133 -117
232 -113 59 2 173 49 213 88 7 7 17 13 22 13 18 0 238 228 319 330 45 58 88
112 95 121 7 8 88 119 179 245 410 566 524 711 672 859 267 268 477 320 641
159 60 -60 127 -199 149 -313 23 -117 24 -625 1 -747 -4 -20 -13 -90 -22 -164
-2 -25 -11 -88 -19 -140 -8 -52 -17 -117 -21 -145 -3 -27 -8 -59 -10 -70 -2
-11 -6 -40 -9 -65 -3 -25 -8 -56 -10 -70 -34 -190 -42 -355 -16 -355 9 0 20
18 27 45 231 863 504 1463 797 1752 139 138 224 174 413 177 152 3 227 -27
278 -108 12 -20 42 -88 65 -151 44 -118 59 -144 101 -170 31 -18 169 -23 225
-9 76 20 203 20 255 0 139 -53 300 -222 477 -501 61 -96 200 -326 236 -390 86
-155 239 -417 274 -473 24 -37 43 -69 43 -71 0 -11 148 -227 195 -286 105
-131 185 -199 281 -240 61 -27 123 -27 208 0 255 80 425 -33 792 -530 55 -74
111 -151 124 -170 14 -19 28 -39 32 -45 5 -5 69 -92 143 -192 207 -279 378
-441 497 -471 50 -13 137 -8 170 9 38 19 79 62 94 99 32 73 23 217 -22 355 -8
28 -17 55 -18 60 -2 6 -8 23 -14 38 -7 16 -12 31 -12 34 0 28 -232 522 -317
673 -11 19 -42 76 -69 125 -27 50 -54 99 -61 110 -7 11 -15 27 -19 35 -4 8
-47 84 -96 168 -48 85 -88 156 -88 158 0 2 -12 23 -27 47 -15 23 -35 56 -44
72 -9 17 -25 44 -35 62 -11 17 -37 62 -58 100 -22 37 -66 113 -99 168 -33 55
-68 114 -77 130 -17 30 -235 399 -321 545 -25 41 -48 82 -52 90 -4 8 -13 24
-20 35 -24 39 -175 301 -202 350 -411 741 -570 1115 -579 1364 -3 100 14 147
77 207 99 93 236 143 411 148 182 6 323 -20 664 -123 263 -80 346 -92 329 -49
-4 12 -182 132 -258 174 -39 22 -175 133 -239 196 -182 178 -279 343 -297 502
-26 238 29 369 189 449 73 36 211 72 323 83 22 2 54 6 70 9 141 24 519 24
1305 0 318 -10 984 -4 1125 10 140 14 312 72 389 130 101 77 113 218 28 303
-78 78 -272 143 -502 167 -30 3 -66 8 -80 10 -24 4 -83 9 -240 20 -132 9 -467
22 -735 30 -524 14 -671 21 -877 40 -129 13 -158 17 -273 36 -367 60 -537 169
-536 342 1 159 95 300 281 422 75 49 252 139 355 180 39 15 79 31 90 36 11 4
103 35 205 68 102 33 250 81 330 107 154 50 237 88 254 117 23 37 -24 39 -284
12 -14 -1 -59 -6 -100 -10 -41 -4 -88 -9 -105 -11 -205 -22 -659 -22 -770 0
-11 2 -40 7 -65 11 -135 22 -277 75 -368 137 -168 116 -247 293 -202 458 42
158 163 301 623 734 281 265 357 382 359 556 1 65 -31 137 -90 202 -51 57
-101 78 -188 78 -64 0 -80 -4 -153 -41 -98 -49 -223 -142 -356 -264 -17 -16
-63 -58 -102 -92 -38 -34 -83 -74 -100 -90 -215 -199 -402 -323 -531 -353 -59
-14 -157 -7 -194 13 -110 59 -148 115 -143 212 6 139 109 332 332 622 77 101
502 616 522 633 8 7 249 293 278 330 6 8 36 44 66 80 270 325 473 624 546 803
51 125 63 278 28 344 -45 86 -131 149 -227 169 -195 39 -467 -179 -900 -719
-8 -11 -20 -24 -25 -31 -6 -6 -73 -92 -150 -191 -181 -235 -196 -253 -289
-376 -44 -57 -85 -110 -92 -119 -7 -8 -59 -74 -116 -146 -157 -199 -162 -206
-173 -218 -6 -6 -33 -38 -60 -71 -244 -293 -436 -470 -602 -552 -152 -75 -308
-41 -453 101 -114 111 -182 248 -225 456 -14 66 -21 112 -40 250 -3 19 -7 69
-10 110 -3 41 -7 93 -10 115 -2 22 -7 72 -10 110 -3 39 -8 84 -10 100 -3 17
-7 46 -10 66 -2 20 -10 49 -16 65 -10 27 -12 28 -19 8 -5 -11 -13 -62 -19
-112 -6 -50 -16 -114 -22 -144 -6 -29 -12 -64 -15 -78 -3 -14 -18 -77 -34
-140 -96 -387 -277 -654 -510 -752 -106 -44 -189 -49 -261 -16 -171 78 -292
326 -424 868 -33 134 -26 103 -68 295 -20 88 -38 175 -42 192 -3 18 -12 61
-20 95 -8 35 -28 128 -44 208 -34 164 -101 450 -130 555 -11 39 -26 95 -34
125 -70 251 -181 454 -287 523 -25 16 -106 38 -113 31z"/>
<path d="M10135 15111 c-52 -22 -134 -130 -130 -171 1 -8 3 -23 3 -32 1 -10
18 -36 38 -58 76 -84 217 -119 295 -73 39 22 69 76 69 122 0 46 -38 118 -78
149 -44 33 -128 72 -155 71 -12 0 -31 -4 -42 -8z"/>
<path d="M688 14170 c-112 -35 -229 -112 -349 -230 -71 -70 -199 -227 -199
-243 0 -3 -15 -30 -34 -62 -19 -31 -49 -96 -67 -143 -42 -113 -45 -234 -10
-325 125 -321 584 -628 1026 -686 73 -10 318 -7 370 3 238 49 397 185 469 402
17 51 19 61 36 147 9 47 8 234 -3 272 -2 11 -10 40 -17 64 -68 252 -366 567
-670 709 -154 71 -269 101 -412 106 -60 2 -103 -2 -140 -14z"/>
<path d="M14136 13169 c-117 -32 -185 -190 -123 -291 70 -116 209 -133 310
-39 45 41 56 70 54 143 -2 73 -16 100 -78 149 -38 31 -119 50 -163 38z"/>
<path d="M2937 12090 c-96 -61 -193 -206 -188 -283 4 -76 53 -143 151 -206
104 -67 159 -84 280 -83 114 0 140 7 187 46 46 39 66 90 69 175 3 112 -21 163
-124 260 -123 115 -278 153 -375 91z"/>
<path d="M16535 11054 c-33 -7 -136 -41 -230 -77 -166 -64 -660 -259 -700
-276 -11 -5 -130 -53 -265 -107 -220 -87 -314 -126 -390 -162 -22 -11 -20 -11
20 -6 35 4 261 45 385 69 30 6 316 55 345 60 146 21 207 27 309 27 230 1 427
-38 622 -122 161 -70 249 -84 321 -52 77 34 108 91 110 205 2 150 -43 253
-156 354 -93 82 -234 116 -371 87z"/>
<path d="M13760 6792 c0 -6 108 -113 654 -646 55 -54 201 -196 322 -315 122
-119 348 -340 504 -491 155 -151 337 -328 403 -394 145 -140 340 -324 382
-358 41 -34 128 -73 211 -96 208 -57 416 31 600 255 53 65 117 192 135 268 30
129 17 286 -32 391 -32 66 -112 149 -184 189 -127 71 -238 96 -486 110 -110 6
-202 14 -264 22 -27 4 -57 7 -65 8 -16 1 -115 16 -140 20 -8 2 -35 8 -60 15
-25 7 -56 14 -69 16 -38 7 -210 64 -291 96 -292 116 -645 311 -1300 720 -251
157 -320 198 -320 190z"/>
<path d="M4465 5656 c-216 -99 -247 -113 -444 -205 -258 -121 -292 -137 -401
-189 -100 -47 -169 -79 -340 -159 -41 -20 -122 -58 -180 -85 -58 -28 -139 -66
-180 -85 -163 -76 -453 -214 -528 -251 -103 -52 -203 -160 -237 -258 -48 -134
-5 -341 100 -479 68 -91 196 -183 292 -211 245 -71 450 83 592 444 158 400
448 729 1041 1182 25 19 47 37 50 40 3 4 43 35 90 70 139 103 340 261 340 265
0 10 -20 2 -195 -79z"/>
<path d="M9772 4630 c-145 -73 -295 -270 -309 -406 -8 -75 33 -159 119 -245
140 -139 354 -222 548 -214 98 5 134 14 196 50 111 65 175 249 138 393 -40
154 -182 313 -349 392 -92 43 -139 56 -215 59 -56 2 -74 -3 -128 -29z"/>
<path d="M8327 3137 c-26 -50 -141 -274 -254 -497 -113 -223 -259 -509 -324
-636 -173 -340 -554 -1102 -576 -1154 -48 -111 -65 -193 -62 -296 5 -152 106
-262 247 -269 184 -10 364 119 519 370 68 111 126 296 168 540 4 22 9 49 11
60 2 11 6 36 9 55 4 19 8 46 11 60 17 99 86 502 90 530 3 19 7 46 9 60 3 14 7
39 9 55 3 17 14 84 25 150 11 66 22 138 25 160 4 22 8 51 11 65 11 53 15 77
21 120 3 25 8 54 10 65 7 36 50 294 59 360 3 22 10 65 15 95 22 132 32 200 28
200 -2 0 -25 -42 -51 -93z"/>
</g>
</svg>
